{
  "asset": {
    "version": "2.0",
    "generator": "THREE.GLTFExporter"
  },
  "scenes": [
    {
      "name": "Scene",
      "nodes": [
        4
      ]
    }
  ],
  "scene": 0,
  "nodes": [
    {
      "matrix": [
        1,
        0,
        0,
        0,
        0,
        1,
        0,
        0,
        0,
        0,
        1,
        0,
        0,
        -7.471458385861383,
        -0.000002263450519179374,
        1
      ],
      "name": "Mesh_Mesh_head_geo001_lambert2SG001",
      "extras": {
        "name": "Mesh_Mesh_head_geo.001_lambert2SG.001"
      },
      "mesh": 0
    },
    {
      "matrix": [
        1,
        0,
        0,
        0,
        0,
        -3.02946268360217e-7,
        -0.9999999657714296,
        0,
        0,
        0.9999999657714296,
        -3.02946268360217e-7,
        0,
        0,
        0,
        0,
        1
      ],
      "name": "Node_1",
      "extras": {
        "name": "Node_1"
      },
      "children": [
        0
      ]
    },
    {
      "matrix": [
        0.3,
        0,
        0,
        0,
        0,
        0.3,
        0,
        0,
        0,
        0,
        0.3,
        0,
        8.140941987018346,
        0,
        10.88443208329739,
        1
      ],
      "name": "iphochargergltf",
      "extras": {
        "name": "iphocharger.gltf"
      },
      "children": [
        1
      ]
    },
    {
      "matrix": [
        0.2,
        0,
        0,
        0,
        0,
        0.2,
        0,
        0,
        0,
        0,
        0.2,
        0,
        -0.01050939539539919,
        0,
        0,
        1
      ],
      "name": "chargltf",
      "extras": {
        "name": "char.gltf"
      },
      "children": [
        2
      ]
    },
    {
      "matrix": [
        0.5,
        0,
        0,
        0,
        0,
        0.5,
        0,
        0,
        0,
        0,
        0.5,
        0,
        -0.13812526022808835,
        0,
        0.5181645752123056,
        1
      ],
      "name": "charg.gltf",
      "children": [
        3
      ]
    }
  ],
  "bufferViews": [
    {
      "buffer": 0,
      "byteOffset": 0,
      "byteLength": 77664,
      "target": 34962,
      "byteStride": 8
    },
    {
      "buffer": 0,
      "byteOffset": 77664,
      "byteLength": 116496,
      "target": 34962,
      "byteStride": 12
    },
    {
      "buffer": 0,
      "byteOffset": 194160,
      "byteLength": 116496,
      "target": 34962,
      "byteStride": 12
    },
    {
      "buffer": 0,
      "byteOffset": 310656,
      "byteLength": 19416,
      "target": 34963
    }
  ],
  "buffers": [
    {
      "byteLength": 330072,
      "uri": "data:application/octet-stream;base64,"
    }
  ],
  "accessors": [
    {
      "bufferView": 0,
      "componentType": 5123,
      "count": 9708,
      "max": [
        64372,
        64372,
        64372,
        65535
      ],
      "min": [
        11028,
        11873,
        12530,
        65535
      ],
      "type": "VEC4",
      "normalized": true
    },
    {
      "bufferView": 1,
      "componentType": 5126,
      "count": 9708,
      "max": [
        4.900000095367432,
        82,
        10
      ],
      "min": [
        -59.667999267578125,
        8.300000190734863,
        0
      ],
      "type": "VEC3"
    },
    {
      "bufferView": 2,
      "componentType": 5126,
      "count": 9708,
      "max": [
        1,
        1,
        1
      ],
      "min": [
        -1,
        -1,
        -1
      ],
      "type": "VEC3"
    },
    {
      "bufferView": 3,
      "componentType": 5123,
      "count": 9708,
      "max": [
        9707
      ],
      "min": [
        0
      ],
      "type": "SCALAR"
    }
  ],
  "materials": [
    {
      "pbrMetallicRoughness": {
        "metallicFactor": 0.5,
        "roughnessFactor": 0.5
      },
      "name": "lambert2SG.001"
    }
  ],
  "meshes": [
    {
      "primitives": [
        {
          "mode": 4,
          "attributes": {
            "COLOR_0": 0,
            "POSITION": 1,
            "NORMAL": 2
          },
          "indices": 3,
          "material": 0
        }
      ]
    }
  ]
}