{
	"asset":{
		"generator":"Khronos glTF Blender I/O v3.6.27",
		"version":"2.0"
	},
	"scene":0,
	"scenes":[
		{
			"name":"Scene",
			"nodes":[
				0
			]
		}
	],
	"nodes":[
		{
			"mesh":0,
			"name":"Text",
			"scale":[
				0.5699999928474426,
				0.5699999928474426,
				0.5699999928474426
			]
		}
	],
	"meshes":[
		{
			"name":"Text",
			"primitives":[
				{
					"attributes":{
						"POSITION":0,
						"NORMAL":1,
						"TEXCOORD_0":2
					},
					"indices":3
				}
			]
		}
	],
	"accessors":[
		{
			"bufferView":0,
			"componentType":5126,
			"count":10941,
			"max":[
				6.975000381469727,
				0.04999999701976776,
				2.009000062942505
			],
			"min":[
				0.049000002443790436,
				-0.04999999701976776,
				-0.6820000410079956
			],
			"type":"VEC3"
		},
		{
			"bufferView":1,
			"componentType":5126,
			"count":10941,
			"type":"VEC3"
		},
		{
			"bufferView":2,
			"componentType":5126,
			"count":10941,
			"type":"VEC2"
		},
		{
			"bufferView":3,
			"componentType":5123,
			"count":32052,
			"type":"SCALAR"
		}
	],
	"bufferViews":[
		{
			"buffer":0,
			"byteLength":131292,
			"byteOffset":0,
			"target":34962
		},
		{
			"buffer":0,
			"byteLength":131292,
			"byteOffset":131292,
			"target":34962
		},
		{
			"buffer":0,
			"byteLength":87528,
			"byteOffset":262584,
			"target":34962
		},
		{
			"buffer":0,
			"byteLength":64104,
			"byteOffset":350112,
			"target":34963
		}
	],
	"buffers":[
		{
			"byteLength":414216,
			"uri":"data:application/octet-stream;base64,"
		}
	]
}
