{
	"asset":{
		"generator":"Khronos glTF Blender I/O v3.6.27",
		"version":"2.0"
	},
	"scene":0,
	"scenes":[
		{
			"name":"Scene",
			"nodes":[
				0
			]
		}
	],
	"nodes":[
		{
			"mesh":0,
			"name":"3D by Sarah",
			"rotation":[
				0.7075484991073608,
				0,
				0,
				0.7066648006439209
			],
			"translation":[
				-0.031013131141662598,
				0.07718706130981445,
				0
			]
		}
	],
	"meshes":[
		{
			"name":"3D by ddSarah",
			"primitives":[
				{
					"attributes":{
						"POSITION":0,
						"NORMAL":1,
						"TEXCOORD_0":2
					},
					"indices":3
				}
			]
		}
	],
	"accessors":[
		{
			"bufferView":0,
			"componentType":5126,
			"count":20006,
			"max":[
				2.967991828918457,
				0.05999999865889549,
				0.1283855140209198
			],
			"min":[
				0.04959549754858017,
				-0.05999999865889549,
				-0.4572634696960449
			],
			"type":"VEC3"
		},
		{
			"bufferView":1,
			"componentType":5126,
			"count":20006,
			"type":"VEC3"
		},
		{
			"bufferView":2,
			"componentType":5126,
			"count":20006,
			"type":"VEC2"
		},
		{
			"bufferView":3,
			"componentType":5123,
			"count":59760,
			"type":"SCALAR"
		}
	],
	"bufferViews":[
		{
			"buffer":0,
			"byteLength":240072,
			"byteOffset":0,
			"target":34962
		},
		{
			"buffer":0,
			"byteLength":240072,
			"byteOffset":240072,
			"target":34962
		},
		{
			"buffer":0,
			"byteLength":160048,
			"byteOffset":480144,
			"target":34962
		},
		{
			"buffer":0,
			"byteLength":119520,
			"byteOffset":640192,
			"target":34963
		}
	],
	"buffers":[
		{
			"byteLength":759712,
			"uri":"data:application/octet-stream;base64,"
		}
	]
}
