{
	"asset":{
		"generator":"Khronos glTF Blender I/O v3.6.27",
		"version":"2.0"
	},
	"scene":0,
	"scenes":[
		{
			"name":"Scene",
			"nodes":[
				0
			]
		}
	],
	"nodes":[
		{
			"mesh":0,
			"name":"Text",
			"scale":[
				0.5699999928474426,
				0.5699999928474426,
				0.5699999928474426
			]
		}
	],
	"meshes":[
		{
			"name":"Text",
			"primitives":[
				{
					"attributes":{
						"POSITION":0,
						"NORMAL":1,
						"TEXCOORD_0":2
					},
					"indices":3
				}
			]
		}
	],
	"accessors":[
		{
			"bufferView":0,
			"componentType":5126,
			"count":18016,
			"max":[
				13.26200008392334,
				0.04999999701976776,
				1.2300000190734863
			],
			"min":[
				0.04100000113248825,
				-0.04999999701976776,
				-0.6910000443458557
			],
			"type":"VEC3"
		},
		{
			"bufferView":1,
			"componentType":5126,
			"count":18016,
			"type":"VEC3"
		},
		{
			"bufferView":2,
			"componentType":5126,
			"count":18016,
			"type":"VEC2"
		},
		{
			"bufferView":3,
			"componentType":5123,
			"count":53112,
			"type":"SCALAR"
		}
	],
	"bufferViews":[
		{
			"buffer":0,
			"byteLength":216192,
			"byteOffset":0,
			"target":34962
		},
		{
			"buffer":0,
			"byteLength":216192,
			"byteOffset":216192,
			"target":34962
		},
		{
			"buffer":0,
			"byteLength":144128,
			"byteOffset":432384,
			"target":34962
		},
		{
			"buffer":0,
			"byteLength":106224,
			"byteOffset":576512,
			"target":34963
		}
	],
	"buffers":[
		{
			"byteLength":682736,
			"uri":"data:application/octet-stream;base64,"
		}
	]
}
