{
	"asset":{
		"generator":"Khronos glTF Blender I/O v3.6.27",
		"version":"2.0"
	},
	"scene":0,
	"scenes":[
		{
			"name":"Scene",
			"nodes":[
				0
			]
		}
	],
	"nodes":[
		{
			"mesh":0,
			"name":"3D by Sarah",
			"rotation":[
				0.7075484991073608,
				0,
				0,
				0.7066648006439209
			],
			"translation":[
				-1.144112467765808,
				0,
				0
			]
		}
	],
	"meshes":[
		{
			"name":"3D by ddSarah",
			"primitives":[
				{
					"attributes":{
						"POSITION":0,
						"NORMAL":1,
						"TEXCOORD_0":2
					},
					"indices":3
				}
			]
		}
	],
	"accessors":[
		{
			"bufferView":0,
			"componentType":5126,
			"count":12760,
			"max":[
				2.338726758956909,
				0.05999999865889549,
				0.008090046234428883
			],
			"min":[
				0.04959549754858017,
				-0.05999999865889549,
				-0.4551530182361603
			],
			"type":"VEC3"
		},
		{
			"bufferView":1,
			"componentType":5126,
			"count":12760,
			"type":"VEC3"
		},
		{
			"bufferView":2,
			"componentType":5126,
			"count":12760,
			"type":"VEC2"
		},
		{
			"bufferView":3,
			"componentType":5123,
			"count":38076,
			"type":"SCALAR"
		}
	],
	"bufferViews":[
		{
			"buffer":0,
			"byteLength":153120,
			"byteOffset":0,
			"target":34962
		},
		{
			"buffer":0,
			"byteLength":153120,
			"byteOffset":153120,
			"target":34962
		},
		{
			"buffer":0,
			"byteLength":102080,
			"byteOffset":306240,
			"target":34962
		},
		{
			"buffer":0,
			"byteLength":76152,
			"byteOffset":408320,
			"target":34963
		}
	],
	"buffers":[
		{
			"byteLength":484472,
			"uri":"data:application/octet-stream;base64,"
		}
	]
}
