{
	"asset":{
		"generator":"Khronos glTF Blender I/O v3.6.27",
		"version":"2.0"
	},
	"scene":0,
	"scenes":[
		{
			"name":"Scene",
			"nodes":[
				0
			]
		}
	],
	"nodes":[
		{
			"mesh":0,
			"name":"Text",
			"scale":[
				0.5699999928474426,
				0.5699999928474426,
				0.5699999928474426
			]
		}
	],
	"meshes":[
		{
			"name":"Text",
			"primitives":[
				{
					"attributes":{
						"POSITION":0,
						"NORMAL":1,
						"TEXCOORD_0":2
					},
					"indices":3
				}
			]
		}
	],
	"accessors":[
		{
			"bufferView":0,
			"componentType":5126,
			"count":13881,
			"max":[
				8.795000076293945,
				0.04999999701976776,
				2.009000062942505
			],
			"min":[
				0.009000000543892384,
				-0.04999999701976776,
				-0.6914074420928955
			],
			"type":"VEC3"
		},
		{
			"bufferView":1,
			"componentType":5126,
			"count":13881,
			"type":"VEC3"
		},
		{
			"bufferView":2,
			"componentType":5126,
			"count":13881,
			"type":"VEC2"
		},
		{
			"bufferView":3,
			"componentType":5123,
			"count":40632,
			"type":"SCALAR"
		}
	],
	"bufferViews":[
		{
			"buffer":0,
			"byteLength":166572,
			"byteOffset":0,
			"target":34962
		},
		{
			"buffer":0,
			"byteLength":166572,
			"byteOffset":166572,
			"target":34962
		},
		{
			"buffer":0,
			"byteLength":111048,
			"byteOffset":333144,
			"target":34962
		},
		{
			"buffer":0,
			"byteLength":81264,
			"byteOffset":444192,
			"target":34963
		}
	],
	"buffers":[
		{
			"byteLength":525456,
			"uri":"data:application/octet-stream;base64,"
		}
	]
}
