{
	"asset":{
		"generator":"Khronos glTF Blender I/O v3.6.27",
		"version":"2.0"
	},
	"scene":0,
	"scenes":[
		{
			"name":"Scene",
			"nodes":[
				0
			]
		}
	],
	"nodes":[
		{
			"mesh":0,
			"name":"Text",
			"scale":[
				0.5699999928474426,
				0.5699999928474426,
				0.5699999928474426
			]
		}
	],
	"meshes":[
		{
			"name":"Text",
			"primitives":[
				{
					"attributes":{
						"POSITION":0,
						"NORMAL":1,
						"TEXCOORD_0":2
					},
					"indices":3
				}
			]
		}
	],
	"accessors":[
		{
			"bufferView":0,
			"componentType":5126,
			"count":11861,
			"max":[
				7.136000156402588,
				0.04999999701976776,
				2.2300000190734863
			],
			"min":[
				0.05000000074505806,
				-0.04999999701976776,
				-0.7160000205039978
			],
			"type":"VEC3"
		},
		{
			"bufferView":1,
			"componentType":5126,
			"count":11861,
			"type":"VEC3"
		},
		{
			"bufferView":2,
			"componentType":5126,
			"count":11861,
			"type":"VEC2"
		},
		{
			"bufferView":3,
			"componentType":5123,
			"count":34908,
			"type":"SCALAR"
		}
	],
	"bufferViews":[
		{
			"buffer":0,
			"byteLength":142332,
			"byteOffset":0,
			"target":34962
		},
		{
			"buffer":0,
			"byteLength":142332,
			"byteOffset":142332,
			"target":34962
		},
		{
			"buffer":0,
			"byteLength":94888,
			"byteOffset":284664,
			"target":34962
		},
		{
			"buffer":0,
			"byteLength":69816,
			"byteOffset":379552,
			"target":34963
		}
	],
	"buffers":[
		{
			"byteLength":449368,
			"uri":"data:application/octet-stream;base64,"
		}
	]
}
