{
	"asset":{
		"generator":"Khronos glTF Blender I/O v3.6.27",
		"version":"2.0"
	},
	"scene":0,
	"scenes":[
		{
			"name":"Scene",
			"nodes":[
				0
			]
		}
	],
	"nodes":[
		{
			"mesh":0,
			"name":"Text",
			"scale":[
				0.5699999928474426,
				0.5699999928474426,
				0.5699999928474426
			]
		}
	],
	"meshes":[
		{
			"name":"Text",
			"primitives":[
				{
					"attributes":{
						"POSITION":0,
						"NORMAL":1,
						"TEXCOORD_0":2
					},
					"indices":3
				}
			]
		}
	],
	"accessors":[
		{
			"bufferView":0,
			"componentType":5126,
			"count":10074,
			"max":[
				9.399001121520996,
				0.04999999701976776,
				1.0089999437332153
			],
			"min":[
				0.04000000283122063,
				-0.04999999701976776,
				-0.6910000443458557
			],
			"type":"VEC3"
		},
		{
			"bufferView":1,
			"componentType":5126,
			"count":10074,
			"type":"VEC3"
		},
		{
			"bufferView":2,
			"componentType":5126,
			"count":10074,
			"type":"VEC2"
		},
		{
			"bufferView":3,
			"componentType":5123,
			"count":29580,
			"type":"SCALAR"
		}
	],
	"bufferViews":[
		{
			"buffer":0,
			"byteLength":120888,
			"byteOffset":0,
			"target":34962
		},
		{
			"buffer":0,
			"byteLength":120888,
			"byteOffset":120888,
			"target":34962
		},
		{
			"buffer":0,
			"byteLength":80592,
			"byteOffset":241776,
			"target":34962
		},
		{
			"buffer":0,
			"byteLength":59160,
			"byteOffset":322368,
			"target":34963
		}
	],
	"buffers":[
		{
			"byteLength":381528,
			"uri":"data:application/octet-stream;base64,"
		}
	]
}
