{
	"asset":{
		"generator":"Khronos glTF Blender I/O v3.6.27",
		"version":"2.0"
	},
	"scene":0,
	"scenes":[
		{
			"name":"Scene",
			"nodes":[
				0
			]
		}
	],
	"nodes":[
		{
			"mesh":0,
			"name":"3D by Sarah",
			"rotation":[
				0.7075484991073608,
				0,
				0,
				0.7066648006439209
			],
			"translation":[
				-1.7145044803619385,
				0,
				0
			]
		}
	],
	"meshes":[
		{
			"name":"3D by ddSarah",
			"primitives":[
				{
					"attributes":{
						"POSITION":0,
						"NORMAL":1,
						"TEXCOORD_0":2
					},
					"indices":3
				}
			]
		}
	],
	"accessors":[
		{
			"bufferView":0,
			"componentType":5126,
			"count":18900,
			"max":[
				3.5244460105895996,
				0.05999999865889549,
				0.12768203020095825
			],
			"min":[
				0.02989799529314041,
				-0.05999999865889549,
				-0.48962363600730896
			],
			"type":"VEC3"
		},
		{
			"bufferView":1,
			"componentType":5126,
			"count":18900,
			"type":"VEC3"
		},
		{
			"bufferView":2,
			"componentType":5126,
			"count":18900,
			"type":"VEC2"
		},
		{
			"bufferView":3,
			"componentType":5123,
			"count":56436,
			"type":"SCALAR"
		}
	],
	"bufferViews":[
		{
			"buffer":0,
			"byteLength":226800,
			"byteOffset":0,
			"target":34962
		},
		{
			"buffer":0,
			"byteLength":226800,
			"byteOffset":226800,
			"target":34962
		},
		{
			"buffer":0,
			"byteLength":151200,
			"byteOffset":453600,
			"target":34962
		},
		{
			"buffer":0,
			"byteLength":112872,
			"byteOffset":604800,
			"target":34963
		}
	],
	"buffers":[
		{
			"byteLength":717672,
			"uri":"data:application/octet-stream;base64,"
		}
	]
}
