{
  "asset": {
    "version": "2.0",
    "generator": "THREE.GLTFExporter"
  },
  "scenes": [
    {
      "name": "Scene",
      "nodes": [
        4
      ]
    }
  ],
  "scene": 0,
  "nodes": [
    {
      "name": "Mesh_Mesh_head_geo001_lambert2SG001",
      "extras": {
        "name": "Mesh_Mesh_head_geo.001_lambert2SG.001"
      },
      "mesh": 0
    },
    {
      "matrix": [
        0.10000000149011612,
        0,
        0,
        0,
        0,
        -3.029463189051585e-8,
        -0.10000001296841975,
        0,
        0,
        0.10000001296841975,
        -3.029463189051585e-8,
        0,
        0,
        0,
        0,
        1
      ],
      "name": "Node_1",
      "extras": {
        "name": "Node_1"
      },
      "children": [
        0
      ]
    },
    {
      "matrix": [
        0.38,
        0,
        0,
        0,
        0,
        0.38,
        0,
        0,
        0,
        0,
        0.38,
        0,
        0,
        0,
        0,
        1
      ],
      "name": "tumblergltf_1",
      "extras": {
        "name": "tumbler.gltf"
      },
      "children": [
        1
      ]
    },
    {
      "matrix": [
        0.5,
        0,
        0,
        0,
        0,
        0.5,
        0,
        0,
        0,
        0,
        0.5,
        0,
        0,
        0,
        0,
        1
      ],
      "name": "tumblergltf",
      "extras": {
        "name": "tumbler.gltf"
      },
      "children": [
        2
      ]
    },
    {
      "matrix": [
        0.5,
        0,
        0,
        0,
        0,
        0.5,
        0,
        0,
        0,
        0,
        0.5,
        0,
        0,
        0,
        0,
        1
      ],
      "name": "tumb.gltf",
      "children": [
        3
      ]
    }
  ],
  "bufferViews": [
    {
      "buffer": 0,
      "byteOffset": 0,
      "byteLength": 245808,
      "target": 34962,
      "byteStride": 8
    },
    {
      "buffer": 0,
      "byteOffset": 245808,
      "byteLength": 368712,
      "target": 34962,
      "byteStride": 12
    },
    {
      "buffer": 0,
      "byteOffset": 614520,
      "byteLength": 368712,
      "target": 34962,
      "byteStride": 12
    },
    {
      "buffer": 0,
      "byteOffset": 983232,
      "byteLength": 61452,
      "target": 34963
    }
  ],
  "buffers": [
    {
      "byteLength": 1044684,
      "uri": "data:application/octet-stream;base64,"
    }
  ],
  "accessors": [
    {
      "bufferView": 0,
      "componentType": 5123,
      "count": 30726,
      "max": [
        64372,
        58190,
        58737,
        65535
      ],
      "min": [
        11028,
        11873,
        8004,
        65535
      ],
      "type": "VEC4",
      "normalized": true
    },
    {
      "bufferView": 1,
      "componentType": 5126,
      "count": 30726,
      "max": [
        28.5,
        41.71099853515625,
        165
      ],
      "min": [
        -46.5,
        -33.28900146484375,
        5.000999927520752
      ],
      "type": "VEC3"
    },
    {
      "bufferView": 2,
      "componentType": 5126,
      "count": 30726,
      "max": [
        1,
        1,
        1
      ],
      "min": [
        -1,
        -1,
        -1
      ],
      "type": "VEC3"
    },
    {
      "bufferView": 3,
      "componentType": 5123,
      "count": 30726,
      "max": [
        30725
      ],
      "min": [
        0
      ],
      "type": "SCALAR"
    }
  ],
  "materials": [
    {
      "pbrMetallicRoughness": {
        "metallicFactor": 0.5,
        "roughnessFactor": 0.5
      },
      "name": "lambert2SG.004"
    }
  ],
  "meshes": [
    {
      "primitives": [
        {
          "mode": 4,
          "attributes": {
            "COLOR_0": 0,
            "POSITION": 1,
            "NORMAL": 2
          },
          "indices": 3,
          "material": 0
        }
      ]
    }
  ]
}