{
  "asset": {
    "version": "2.0",
    "generator": "THREE.GLTFExporter"
  },
  "scenes": [
    {
      "name": "Scene",
      "nodes": [
        4
      ]
    }
  ],
  "scene": 0,
  "nodes": [
    {
      "matrix": [
        1,
        0,
        0,
        0,
        0,
        -3.0294626858226163e-7,
        -0.9999999657714297,
        0,
        0,
        0.9999999657714297,
        -3.0294626858226163e-7,
        0,
        0,
        0,
        0,
        1
      ],
      "name": "Node_1",
      "extras": {
        "name": "Node_1"
      }
    },
    {
      "name": "Mesh_Mesh_head_geo001_lambert2SG001",
      "extras": {
        "name": "Mesh_Mesh_head_geo.001_lambert2SG.001"
      },
      "mesh": 0
    },
    {
      "matrix": [
        0.20000000298023224,
        0,
        0,
        0,
        0,
        -6.058926373662279e-8,
        -0.2000000259368395,
        0,
        0,
        0.2000000259368395,
        -6.058926373662279e-8,
        0,
        0,
        0,
        0,
        1
      ],
      "name": "Node_1001",
      "extras": {
        "name": "Node_1.001"
      },
      "children": [
        1
      ]
    },
    {
      "matrix": [
        0.17,
        0,
        0,
        0,
        0,
        0.17,
        0,
        0,
        0,
        0,
        0.17,
        0,
        0,
        0,
        0,
        1
      ],
      "name": "tuppegltf",
      "extras": {
        "name": "tuppe.gltf"
      },
      "children": [
        0,
        2
      ]
    },
    {
      "matrix": [
        0.5,
        0,
        0,
        0,
        0,
        0.5,
        0,
        0,
        0,
        0,
        0.5,
        0,
        0,
        0,
        0,
        1
      ],
      "name": "tupp.gltf",
      "children": [
        3
      ]
    }
  ],
  "bufferViews": [
    {
      "buffer": 0,
      "byteOffset": 0,
      "byteLength": 250608,
      "target": 34962,
      "byteStride": 8
    },
    {
      "buffer": 0,
      "byteOffset": 250608,
      "byteLength": 375912,
      "target": 34962,
      "byteStride": 12
    },
    {
      "buffer": 0,
      "byteOffset": 626520,
      "byteLength": 375912,
      "target": 34962,
      "byteStride": 12
    },
    {
      "buffer": 0,
      "byteOffset": 1002432,
      "byteLength": 62652,
      "target": 34963
    }
  ],
  "buffers": [
    {
      "byteLength": 1065084,
      "uri": "data:application/octet-stream;base64,"
    }
  ],
  "accessors": [
    {
      "bufferView": 0,
      "componentType": 5123,
      "count": 31326,
      "max": [
        65535,
        64372,
        64372,
        65535
      ],
      "min": [
        18001,
        7500,
        6700,
        65535
      ],
      "type": "VEC4",
      "normalized": true
    },
    {
      "bufferView": 1,
      "componentType": 5126,
      "count": 31326,
      "max": [
        41,
        36.16999816894531,
        33.93600082397461
      ],
      "min": [
        -36.16999816894531,
        -35,
        -2.936000108718872
      ],
      "type": "VEC3"
    },
    {
      "bufferView": 2,
      "componentType": 5126,
      "count": 31326,
      "max": [
        1,
        1,
        1
      ],
      "min": [
        -1,
        -1,
        -1
      ],
      "type": "VEC3"
    },
    {
      "bufferView": 3,
      "componentType": 5123,
      "count": 31326,
      "max": [
        31325
      ],
      "min": [
        0
      ],
      "type": "SCALAR"
    }
  ],
  "materials": [
    {
      "pbrMetallicRoughness": {
        "metallicFactor": 0.5,
        "roughnessFactor": 0.5
      },
      "name": "lambert2SG.002"
    }
  ],
  "meshes": [
    {
      "primitives": [
        {
          "mode": 4,
          "attributes": {
            "COLOR_0": 0,
            "POSITION": 1,
            "NORMAL": 2
          },
          "indices": 3,
          "material": 0
        }
      ]
    }
  ]
}