{
	"asset":{
		"generator":"Khronos glTF Blender I/O v3.6.27",
		"version":"2.0"
	},
	"scene":0,
	"scenes":[
		{
			"name":"Scene",
			"nodes":[
				0
			]
		}
	],
	"nodes":[
		{
			"mesh":0,
			"name":"Text",
			"scale":[
				0.5699999928474426,
				0.5699999928474426,
				0.5699999928474426
			]
		}
	],
	"meshes":[
		{
			"name":"Text",
			"primitives":[
				{
					"attributes":{
						"POSITION":0,
						"NORMAL":1,
						"TEXCOORD_0":2
					},
					"indices":3
				}
			]
		}
	],
	"accessors":[
		{
			"bufferView":0,
			"componentType":5126,
			"count":13251,
			"max":[
				9.91100025177002,
				0.04999999701976776,
				1.0089999437332153
			],
			"min":[
				0,
				-0.04999999701976776,
				-0.6910000443458557
			],
			"type":"VEC3"
		},
		{
			"bufferView":1,
			"componentType":5126,
			"count":13251,
			"type":"VEC3"
		},
		{
			"bufferView":2,
			"componentType":5126,
			"count":13251,
			"type":"VEC2"
		},
		{
			"bufferView":3,
			"componentType":5123,
			"count":39024,
			"type":"SCALAR"
		}
	],
	"bufferViews":[
		{
			"buffer":0,
			"byteLength":159012,
			"byteOffset":0,
			"target":34962
		},
		{
			"buffer":0,
			"byteLength":159012,
			"byteOffset":159012,
			"target":34962
		},
		{
			"buffer":0,
			"byteLength":106008,
			"byteOffset":318024,
			"target":34962
		},
		{
			"buffer":0,
			"byteLength":78048,
			"byteOffset":424032,
			"target":34963
		}
	],
	"buffers":[
		{
			"byteLength":502080,
			"uri":"data:application/octet-stream;base64,"
		}
	]
}
