{
  "asset": {
    "version": "2.0",
    "generator": "THREE.GLTFExporter"
  },
  "scenes": [
    {
      "name": "Scene",
      "nodes": [
        3
      ]
    }
  ],
  "scene": 0,
  "nodes": [
    {
      "matrix": [
        0.20000000298023224,
        0,
        0,
        0,
        0,
        0.20000000298023224,
        0,
        0,
        0,
        0,
        0.20000000298023224,
        0,
        -18.230316162109375,
        -3.779526710510254,
        0,
        1
      ],
      "name": "Mesh_Mesh_head_geo001_lambert2SG001",
      "extras": {
        "name": "Mesh_Mesh_head_geo.001_lambert2SG.001"
      },
      "mesh": 0
    },
    {
      "matrix": [
        1,
        0,
        0,
        0,
        0,
        -3.0294626858226163e-7,
        -0.9999999657714297,
        0,
        0,
        0.9999999657714297,
        -3.0294626858226163e-7,
        0,
        0,
        0,
        0,
        1
      ],
      "name": "Node_1",
      "extras": {
        "name": "Node_1"
      },
      "children": [
        0
      ]
    },
    {
      "matrix": [
        1.44,
        0,
        0,
        0,
        0,
        1.44,
        0,
        0,
        0,
        0,
        1.44,
        0,
        -1.4417239287987593,
        0,
        0.7298187869388943,
        1
      ],
      "name": "robovacgltf",
      "extras": {
        "name": "robovac.gltf"
      },
      "children": [
        1
      ]
    },
    {
      "matrix": [
        0.17,
        0,
        0,
        0,
        0,
        0.17,
        0,
        0,
        0,
        0,
        0.17,
        0,
        0,
        0,
        0,
        1
      ],
      "name": "vacu.gltf",
      "children": [
        2
      ]
    }
  ],
  "bufferViews": [
    {
      "buffer": 0,
      "byteOffset": 0,
      "byteLength": 425280,
      "target": 34962,
      "byteStride": 8
    },
    {
      "buffer": 0,
      "byteOffset": 425280,
      "byteLength": 637920,
      "target": 34962,
      "byteStride": 12
    },
    {
      "buffer": 0,
      "byteOffset": 1063200,
      "byteLength": 637920,
      "target": 34962,
      "byteStride": 12
    },
    {
      "buffer": 0,
      "byteOffset": 1701120,
      "byteLength": 106320,
      "target": 34963
    }
  ],
  "buffers": [
    {
      "byteLength": 1807440,
      "uri": "data:application/octet-stream;base64,"
    }
  ],
  "accessors": [
    {
      "bufferView": 0,
      "componentType": 5123,
      "count": 53160,
      "max": [
        48850,
        59840,
        61517,
        65535
      ],
      "min": [
        0,
        11873,
        12530,
        65535
      ],
      "type": "VEC4",
      "normalized": true
    },
    {
      "bufferView": 1,
      "componentType": 5126,
      "count": 53160,
      "max": [
        121.75296020507812,
        47,
        17.100000381469727
      ],
      "min": [
        68.69999694824219,
        -5.194681644439697,
        -1
      ],
      "type": "VEC3"
    },
    {
      "bufferView": 2,
      "componentType": 5126,
      "count": 53160,
      "max": [
        0.9999979734420776,
        1,
        1
      ],
      "min": [
        -1,
        -1,
        -1
      ],
      "type": "VEC3"
    },
    {
      "bufferView": 3,
      "componentType": 5123,
      "count": 53160,
      "max": [
        53159
      ],
      "min": [
        0
      ],
      "type": "SCALAR"
    }
  ],
  "materials": [
    {
      "pbrMetallicRoughness": {
        "metallicFactor": 0.5,
        "roughnessFactor": 0.5
      },
      "name": "lambert2SG.002"
    }
  ],
  "meshes": [
    {
      "primitives": [
        {
          "mode": 4,
          "attributes": {
            "COLOR_0": 0,
            "POSITION": 1,
            "NORMAL": 2
          },
          "indices": 3,
          "material": 0
        }
      ]
    }
  ]
}